<?xml version="1.0" encoding="UTF-8" standalone="no"?>
<!DOCTYPE svg PUBLIC "-//W3C//DTD SVG 1.1//EN" "http://www.w3.org/Graphics/SVG/1.1/DTD/svg11.dtd">
<svg width="100%" height="100%" viewBox="0 0 16 16" version="1.1" xmlns="http://www.w3.org/2000/svg" xmlns:xlink="http://www.w3.org/1999/xlink" xml:space="preserve" xmlns:serif="http://www.serif.com/" style="fill-rule:evenodd;clip-rule:evenodd;stroke-linejoin:round;stroke-miterlimit:1.41421;">
    <g id="iconBg" transform="matrix(0.970531,0,0,0.970531,0.33,0.14136)">
        <path d="M8.667,10.325L8.667,13.157C8.667,13.465 8.727,14 8.418,14L7.333,14L7.333,13.333L8,13.333L8,11.207L7.885,11.087C7.016,11.885 5.677,11.916 4.772,11.159C4,10.385 4.079,9.333 4.917,8L2.667,8L2.667,8.667L2,8.667L2,7.582C2,7.273 2.535,7.333 2.843,7.333L5.579,7.333L8.667,10.325ZM6.667,3.333L6,3.333L6,2.667L7.3,2.667C7.607,2.667 8,2.814 8,3.122L8,5.352L8.491,5.935C8.571,5.292 9.119,4.802 9.767,4.795C9.846,4.788 9.925,4.797 10,4.821L10,3.333L10.667,3.333L10.667,5.079C10.708,5.198 10.803,5.293 10.922,5.334L12.667,5.334L12.667,6L11.178,6C11.196,6 11.206,6.1 11.206,6.2C11.201,6.851 10.711,7.404 10.065,7.488L10.648,8L12.879,8C13.187,8 13.334,8.389 13.334,8.7L13.334,10L12.667,10L12.667,9.333L10.987,9.333L6.667,5.133L6.667,3.333Z" style="fill:rgb(66,66,66);fill-rule:nonzero;"/>
    </g>
    <g transform="matrix(0.922327,0.917775,-0.139409,0.1401,1.80484,0.424347)">
        <g id="Layer2">
            <rect x="2.49" y="1.742" width="9.876" height="5.619" style="fill:rgb(66,66,66);"/>
        </g>
    </g>
</svg>
