<?xml version="1.0" encoding="UTF-8" standalone="no"?>
<svg
   xmlns:dc="http://purl.org/dc/elements/1.1/"
   xmlns:cc="http://creativecommons.org/ns#"
   xmlns:rdf="http://www.w3.org/1999/02/22-rdf-syntax-ns#"
   xmlns:svg="http://www.w3.org/2000/svg"
   xmlns="http://www.w3.org/2000/svg"
   width="20"
   height="20"
   viewBox="0 0 20 20"
   id="svg4068"
   version="1.1">
  <defs
     id="defs4070" />
  <metadata
     id="metadata4073">
    <rdf:RDF>
      <cc:Work
         rdf:about="">
        <dc:format>image/svg+xml</dc:format>
        <dc:type
           rdf:resource="http://purl.org/dc/dcmitype/StillImage" />
        <dc:title></dc:title>
      </cc:Work>
    </rdf:RDF>
  </metadata>
  <g
     transform="translate(-8.813559,1.6101692)"
     id="g8301">
    <path
       style="fill:#f6f6f6"
       d="m 26.813559,6.9758305 -3,-3 -1.414,1.414 -2.172,0 1,-1 -4,-3.99999999 -0.828,0 -5.586,5.58599999 0,0.828 4,4.0000005 2.414,-2.4140005 0.586,0 0,5.0000005 1.586,0 3,3 0.828,0 3.586,-3.586 0,-0.828 -2.086,-2.0860005 2.086,-2.086 0,-0.828 z"
       id="path4422" />
    <polygon
       transform="translate(-31.186441,-1.6101695)"
       style="fill:#c27d1a"
       points="55,7 54,8 49,8 51,6 48,3 43,8 46,11 48,9 50,9 50,14 53,14 52,15 54,17 57,14 55,12 53.998,13.002 51,13 51,9 53,9 52,10 54,12 57,9 "
       id="polygon4424" />
  </g>
</svg>
