<?xml version="1.0" encoding="UTF-8" standalone="no"?>
<svg
   xmlns:dc="http://purl.org/dc/elements/1.1/"
   xmlns:cc="http://creativecommons.org/ns#"
   xmlns:rdf="http://www.w3.org/1999/02/22-rdf-syntax-ns#"
   xmlns:svg="http://www.w3.org/2000/svg"
   xmlns="http://www.w3.org/2000/svg"
   width="20"
   height="20"
   viewBox="0 0 20 20"
   id="svg4218"
   version="1.1">
  <defs
     id="defs4220" />
  <metadata
     id="metadata4223">
    <rdf:RDF>
      <cc:Work
         rdf:about="">
        <dc:format>image/svg+xml</dc:format>
        <dc:type
           rdf:resource="http://purl.org/dc/dcmitype/StillImage" />
        <dc:title></dc:title>
      </cc:Work>
    </rdf:RDF>
  </metadata>
  <g
     transform="translate(-3.3898307,-0.76271195)"
     id="g5781">
    <path
       style="fill:#f6f6f6"
       d="m 16.890331,15.262712 c -1.914,0 -3.601,-1.242 -4.227,-3 l -1.683,0 c -0.524,0.91 -1.5030005,1.5 -2.5910005,1.5 -1.654,0 -3,-1.346 -3,-3 0,-1.6540001 1.346,-3.0000001 3,-3.0000001 1.088,0 2.0660005,0.588 2.5910005,1.5 l 1.683,0 c 0.626,-1.76 2.313,-3 4.227,-3 2.481,0 4.5,2.018 4.5,4.5000001 0,2.48 -2.019,4.5 -4.5,4.5 z"
       id="path4412" />
    <path
       style="fill:#00539c"
       d="m 16.890331,7.2627119 c -1.759,0 -3.204,1.308 -3.449,3.0000001 l -3.122,0 c -0.223,-0.8610001 -0.9980005,-1.5000001 -1.9290005,-1.5000001 -1.104,0 -2,0.895 -2,2.0000001 0,1.104 0.896,2 2,2 0.931,0 1.7060005,-0.639 1.9290005,-1.5 l 3.122,0 c 0.245,1.691 1.69,3 3.449,3 1.93,0 3.5,-1.57 3.5,-3.5 0,-1.9310001 -1.57,-3.5000001 -3.5,-3.5000001 z m 0,5.0000001 c -0.827,0 -1.5,-0.674 -1.5,-1.5 0,-0.8280001 0.673,-1.5000001 1.5,-1.5000001 0.827,0 1.5,0.672 1.5,1.5000001 0,0.826 -0.673,1.5 -1.5,1.5 z"
       id="path4414" />
    <circle
       style="fill:#f0eff1"
       cx="16.890331"
       cy="10.762712"
       r="1.5"
       id="circle4416" />
  </g>
</svg>
