<?xml version="1.0" encoding="UTF-8" standalone="no"?>
<svg
   xmlns:dc="http://purl.org/dc/elements/1.1/"
   xmlns:cc="http://creativecommons.org/ns#"
   xmlns:rdf="http://www.w3.org/1999/02/22-rdf-syntax-ns#"
   xmlns:svg="http://www.w3.org/2000/svg"
   xmlns="http://www.w3.org/2000/svg"
   xmlns:sodipodi="http://sodipodi.sourceforge.net/DTD/sodipodi-0.dtd"
   xmlns:inkscape="http://www.inkscape.org/namespaces/inkscape"
   version="1.1"
   id="svg4062"
   viewBox="0 0 20 20"
   height="20"
   width="20"
   inkscape:version="0.91 r13725"
   sodipodi:docname="icon-interface.svg">
  <sodipodi:namedview
     pagecolor="#ffffff"
     bordercolor="#666666"
     borderopacity="1"
     objecttolerance="10"
     gridtolerance="10"
     guidetolerance="10"
     inkscape:pageopacity="0"
     inkscape:pageshadow="2"
     inkscape:window-width="1165"
     inkscape:window-height="622"
     id="namedview4532"
     showgrid="false"
     inkscape:zoom="11.8"
     inkscape:cx="9.0085644"
     inkscape:cy="10"
     inkscape:window-x="0"
     inkscape:window-y="540"
     inkscape:window-maximized="0"
     inkscape:current-layer="svg4062" />
  <defs
     id="defs4064" />
  <metadata
     id="metadata4067">
    <rdf:RDF>
      <cc:Work
         rdf:about="">
        <dc:format>image/svg+xml</dc:format>
        <dc:type
           rdf:resource="http://purl.org/dc/dcmitype/StillImage" />
        <dc:title></dc:title>
      </cc:Work>
    </rdf:RDF>
  </metadata>
  <g
     id="g5094"
     transform="translate(-23.050847,-5.932203)">
    <path
       inkscape:connector-curvature="0"
       style="fill:#2d2d30"
       d="m 36.551347,20.432203 c -1.914,0 -3.601,-1.242 -4.227,-3 l -1.683,0 c -0.524,0.91 -1.503,1.5 -2.591,1.5 -1.654,0 -3,-1.346 -3,-3 0,-1.654 1.346,-3 3,-3 1.088,0 2.066,0.588 2.591,1.5 l 1.683,0 c 0.626,-1.76 2.313,-3 4.227,-3 2.481,0 4.5,2.018 4.5,4.5 0,2.48 -2.019,4.5 -4.5,4.5 z"
       id="path5086" />
    <path
       inkscape:connector-curvature="0"
       style="fill:#75beff"
       d="m 36.551347,12.432203 c -1.759,0 -3.204,1.309 -3.449,3 l -3.122,0 c -0.223,-0.861 -0.998,-1.5 -1.929,-1.5 -1.104,0 -2,0.895 -2,2 0,1.104 0.896,2 2,2 0.931,0 1.706,-0.639 1.929,-1.5 l 3.122,0 c 0.245,1.691 1.69,3 3.449,3 1.93,0 3.5,-1.57 3.5,-3.5 0,-1.932 -1.57,-3.5 -3.5,-3.5 z"
       id="path5088" />
    <circle
       style="fill:#75beff"
       cx="36.55135"
       cy="15.932203"
       r="1.5"
       id="circle5090" />
    <circle
       style="fill:#2b282e"
       cx="36.55135"
       cy="15.932203"
       r="1.5"
       id="circle5092" />
  </g>
</svg>
