<?xml version="1.0" encoding="UTF-8" standalone="no"?>
<svg
   xmlns:dc="http://purl.org/dc/elements/1.1/"
   xmlns:cc="http://creativecommons.org/ns#"
   xmlns:rdf="http://www.w3.org/1999/02/22-rdf-syntax-ns#"
   xmlns:svg="http://www.w3.org/2000/svg"
   xmlns="http://www.w3.org/2000/svg"
   width="20"
   height="20"
   viewBox="0 0 20 20"
   id="svg4152"
   version="1.1">
  <defs
     id="defs4154" />
  <metadata
     id="metadata4157">
    <rdf:RDF>
      <cc:Work
         rdf:about="">
        <dc:format>image/svg+xml</dc:format>
        <dc:type
           rdf:resource="http://purl.org/dc/dcmitype/StillImage" />
        <dc:title></dc:title>
      </cc:Work>
    </rdf:RDF>
  </metadata>
  <g
     transform="translate(1.6101695,-0.33898305)"
     id="g6423">
    <polygon
       transform="translate(0.88983051,0.33898305)"
       style="fill:#f6f6f6"
       points="7.209,4 2,7.308 2,12.692 7.209,16 7.791,16 13,12.692 13,7.308 7.791,4 "
       id="polygon4456" />
    <path
       style="fill:#652d90"
       d="m 8.3898305,5.3389831 -4.5,2.857 0,4.2849999 4.5,2.858 4.5000005,-2.857 0,-4.2859999 -4.5000005,-2.857 z m -0.5,8.4979999 -3,-1.905 0,-2.8159999 3,1.9049999 0,2.816 z m -2.358,-5.4979999 2.858,-1.815 2.8580005,1.815 -2.8580005,1.8149999 -2.858,-1.8149999 z m 6.3580005,3.5929999 -3.0000005,1.905 0,-2.815 3.0000005,-1.9049999 0,2.8149999 z"
       id="path4458" />
    <polygon
       transform="translate(0.88983051,0.33898305)"
       style="fill:#f0eff1"
       points="7.5,6.185 10.358,8 7.5,9.815 4.642,8 "
       id="polygon4460" />
    <polygon
       transform="translate(0.88983051,0.33898305)"
       style="fill:#f0eff1"
       points="4,11.593 4,8.777 7,10.683 7,13.498 "
       id="polygon4462" />
    <polygon
       transform="translate(0.88983051,0.33898305)"
       style="fill:#f0eff1"
       points="11,11.593 8,13.498 8,10.683 11,8.777 "
       id="polygon4464" />
  </g>
</svg>
