<?xml version="1.0" encoding="UTF-8" standalone="no"?>
<svg
   xmlns:dc="http://purl.org/dc/elements/1.1/"
   xmlns:cc="http://creativecommons.org/ns#"
   xmlns:rdf="http://www.w3.org/1999/02/22-rdf-syntax-ns#"
   xmlns:svg="http://www.w3.org/2000/svg"
   xmlns="http://www.w3.org/2000/svg"
   width="20"
   height="20"
   viewBox="0 0 20 20"
   id="svg4341"
   version="1.1">
  <defs
     id="defs4343" />
  <metadata
     id="metadata4346">
    <rdf:RDF>
      <cc:Work
         rdf:about="">
        <dc:format>image/svg+xml</dc:format>
        <dc:type
           rdf:resource="http://purl.org/dc/dcmitype/StillImage" />
        <dc:title></dc:title>
      </cc:Work>
    </rdf:RDF>
  </metadata>
  <g
     transform="translate(-2.881356,0.33898305)"
     id="g9546">
    <path
       style="fill:#424242"
       d="m 18.244578,6.5200169 -2.641,2.641 -2,-2 2.641,-2.641 c -0.502,-0.226 -1.055,-0.359 -1.641,-0.359 -2.209,0 -4,1.791 -4,4 0,0.586 0.133,1.139 0.359,1.64 L 7.6035784,13.161017 c 0,0 -1,1 0,2 l 1.9999999,0 3.3589997,-3.36 c 0.502,0.227 1.055,0.36 1.641,0.36 2.209,0 4,-1.791 4,-4.0000001 0,-0.586 -0.133,-1.139 -0.359,-1.641 z"
       id="path4390" />
  </g>
</svg>
