<?xml version="1.0" encoding="UTF-8" standalone="no"?>
<svg
   xmlns:dc="http://purl.org/dc/elements/1.1/"
   xmlns:cc="http://creativecommons.org/ns#"
   xmlns:rdf="http://www.w3.org/1999/02/22-rdf-syntax-ns#"
   xmlns:svg="http://www.w3.org/2000/svg"
   xmlns="http://www.w3.org/2000/svg"
   id="svg4168"
   version="1.1"
   viewBox="0 0 4.2333332 4.2333332"
   height="16"
   width="16">
  <defs
     id="defs4162" />
  <metadata
     id="metadata4165">
    <rdf:RDF>
      <cc:Work
         rdf:about="">
        <dc:format>image/svg+xml</dc:format>
        <dc:type
           rdf:resource="http://purl.org/dc/dcmitype/StillImage" />
        <dc:title></dc:title>
      </cc:Work>
    </rdf:RDF>
  </metadata>
  <g
     transform="translate(0,-292.76667)"
     id="layer1">
    <g
       transform="translate(-297.24048,270.78215)"
       id="g4186">
      <polygon
         transform="matrix(0.26458333,0,0,0.26458333,291.94881,16.295982)"
         style="fill:#2d2d30"
         points="22,32.605 22,27.369 28.739,24 29.263,24 34,26.369 34,31.605 27.209,35 26.789,35 "
         id="polygon290" />
      <polygon
         transform="matrix(0.26458333,0,0,0.26458333,291.94881,16.295982)"
         style="fill:#75beff"
         points="23,32 27,34 33,31 33,27 29,25 23,28 "
         id="polygon292" />
      <polygon
         transform="matrix(0.26458333,0,0,0.26458333,291.94881,16.295982)"
         style="fill:#75beff"
         points="25,28 29,26 31,27 27,29 "
         id="polygon294" />
      <polygon
         transform="matrix(0.26458333,0,0,0.26458333,291.94881,16.295982)"
         style="fill:#2b282e"
         points="31,27 27,29 25,28 29,26 "
         id="polygon296" />
    </g>
  </g>
</svg>
