<?xml version="1.0" encoding="UTF-8" standalone="no"?>
<svg
   xmlns:dc="http://purl.org/dc/elements/1.1/"
   xmlns:cc="http://creativecommons.org/ns#"
   xmlns:rdf="http://www.w3.org/1999/02/22-rdf-syntax-ns#"
   xmlns:svg="http://www.w3.org/2000/svg"
   xmlns="http://www.w3.org/2000/svg"
   id="svg4204"
   version="1.1"
   viewBox="0 0 4.2333332 4.2333335"
   height="16"
   width="16">
  <defs
     id="defs4198" />
  <metadata
     id="metadata4201">
    <rdf:RDF>
      <cc:Work
         rdf:about="">
        <dc:format>image/svg+xml</dc:format>
        <dc:type
           rdf:resource="http://purl.org/dc/dcmitype/StillImage" />
        <dc:title></dc:title>
      </cc:Work>
    </rdf:RDF>
  </metadata>
  <g
     transform="translate(0,-292.76665)"
     id="layer1">
    <g
       transform="translate(-672.94879,321.43095)"
       id="g4216">
      <path
         style="fill:#2d2d30;stroke-width:0.26458332"
         d="m 675.5218,-28.326031 c -0.43312,0 -0.81359,0.21087 -1.05489,0.53234 l 2.6e-4,5.3e-4 c -0.16616,0.22119 -0.26829,0.49292 -0.26829,0.79005 0,0.12409 0.0177,0.24712 0.0529,0.36644 l -0.76914,0.76941 c -0.18177,0.18151 -0.33153,0.57177 0,0.90329 0.16113,0.16113 0.32914,0.19473 0.44185,0.19473 0.25347,0 0.42889,-0.16219 0.46143,-0.19473 l 0.76915,-0.76941 c 0.11985,0.0352 0.24262,0.0532 0.36671,0.0532 0.29713,0 0.56859,-0.10239 0.78978,-0.26828 h 5.3e-4 c 0.32173,-0.24104 0.53261,-0.6223 0.53261,-1.05463 0,-0.73078 -0.59214,-1.32292 -1.32292,-1.32292 z"
         id="path248" />
      <path
         style="fill:#c5c5c5;stroke-width:0.26458332"
         d="m 676.48515,-27.437291 -0.69877,0.69876 -0.52916,-0.52917 0.69876,-0.69876 c -0.13282,-0.0603 -0.27913,-0.095 -0.43418,-0.095 -0.58446,0 -1.05833,0.47387 -1.05833,1.05834 0,0.15504 0.0352,0.30136 0.095,0.43418 l -0.88873,0.88873 c 0,0 -0.26459,0.26459 0,0.52917 h 0.52916 l 0.88874,-0.88874 c 0.13282,0.0601 0.27913,0.095 0.43418,0.095 0.58446,0 1.05833,-0.47387 1.05833,-1.05833 0,-0.15505 -0.0352,-0.30136 -0.095,-0.43418 z"
         id="path250" />
    </g>
  </g>
</svg>
