<?xml version="1.0" encoding="UTF-8" standalone="no"?>
<svg
   xmlns:dc="http://purl.org/dc/elements/1.1/"
   xmlns:cc="http://creativecommons.org/ns#"
   xmlns:rdf="http://www.w3.org/1999/02/22-rdf-syntax-ns#"
   xmlns:svg="http://www.w3.org/2000/svg"
   xmlns="http://www.w3.org/2000/svg"
   id="svg4130"
   version="1.1"
   viewBox="0 0 4.2333332 4.2333335"
   height="16"
   width="16">
  <defs
     id="defs4124" />
  <metadata
     id="metadata4127">
    <rdf:RDF>
      <cc:Work
         rdf:about="">
        <dc:format>image/svg+xml</dc:format>
        <dc:type
           rdf:resource="http://purl.org/dc/dcmitype/StillImage" />
        <dc:title></dc:title>
      </cc:Work>
    </rdf:RDF>
  </metadata>
  <g
     transform="translate(0,-292.76665)"
     id="layer1">
    <g
       transform="translate(-381.90714,229.96071)"
       id="g4148">
      <path
         style="fill:#2d2d30;stroke-width:0.26458332"
         d="m 384.28839,65.716352 h 0.26459 v -0.26458 c 0,-0.14208 0.19605,-0.42678 0.26458,-0.52917 -0.0685,-0.10292 -0.26458,-0.38814 -0.26458,-0.52917 v -0.26458 h -0.26459 v -0.79375 h 0.26459 c 0.52096,0.006 0.79375,0.33787 0.79375,0.79375 v 0.26458 l 0.26458,0.26459 v 0.52916 l -0.26458,0.26459 v 0.26458 c 0,0.45217 -0.27279,0.78819 -0.79375,0.79375 h -0.26459 z"
         id="path256" />
      <path
         style="fill:#2d2d30;stroke-width:0.26458332"
         d="m 383.75923,65.716352 h -0.26459 v -0.26458 c 0,-0.14208 -0.19605,-0.42678 -0.26458,-0.52917 0.0685,-0.10292 0.26458,-0.38814 0.26458,-0.52917 v -0.26458 h 0.26459 v -0.79375 h -0.26459 c -0.52096,0.006 -0.79375,0.33787 -0.79375,0.79375 v 0.26458 l -0.26458,0.26459 v 0.52916 l 0.26458,0.26459 v 0.26458 c 0,0.45217 0.34846,0.78819 0.86942,0.79375 h 0.18892 z"
         id="path258" />
      <path
         style="fill:#c5c5c5;stroke-width:0.26458332"
         d="m 384.81756,65.716352 v -0.26458 c 0,-0.22067 0.13123,-0.45985 0.26458,-0.52917 -0.13335,-0.0714 -0.26458,-0.30903 -0.26458,-0.52917 v -0.26458 c 0,-0.22225 -0.15452,-0.26458 -0.26458,-0.26458 v -0.26459 c 0.55112,0 0.52916,0.30851 0.52916,0.52917 v 0.26458 c 0,0.25638 0.186,0.2593 0.26459,0.26459 v 0.52916 c -0.0852,0.005 -0.26459,0.014 -0.26459,0.26459 v 0.26458 c 0,0.22066 0.022,0.52917 -0.52916,0.52917 v -0.26459 c 0.22039,0 0.26458,-0.26458 0.26458,-0.26458 z"
         id="path260" />
      <path
         style="fill:#c5c5c5;stroke-width:0.26458332"
         d="m 383.23006,65.716352 v -0.26458 c 0,-0.22067 -0.13123,-0.45985 -0.26458,-0.52917 0.13335,-0.0714 0.26458,-0.30903 0.26458,-0.52917 v -0.26458 c 0,-0.22225 0.15452,-0.26458 0.26458,-0.26458 v -0.26459 c -0.55112,0 -0.52916,0.30851 -0.52916,0.52917 v 0.26458 c 0,0.25638 -0.18601,0.2593 -0.26459,0.26459 v 0.52916 c 0.0852,0.005 0.26459,0.014 0.26459,0.26459 v 0.26458 c 0,0.22066 -0.022,0.52917 0.52916,0.52917 v -0.26459 c -0.2204,0 -0.26458,-0.26458 -0.26458,-0.26458 z"
         id="path262" />
    </g>
  </g>
</svg>
